<svg xmlns="http://www.w3.org/2000/svg" width="115" height="115" viewBox="0 0 115 115"><g id="LOGO" transform="translate(-49 -10)"><rect id="bg_logo" data-name="bg logo" width="115" height="115" rx="2" transform="translate(49 10)"></rect><g id="SCUF_LOGO_BLANC_header" data-name="SCUF LOGO BLANC_header" transform="translate(75 26)"><path id="Trac&#xE9;_1" data-name="Trac&#xE9; 1" d="M287.112,58.816h12.3a.467.467,0,0,1,.439.472v3.706a.488.488,0,0,1-.494.439l-5.8-.009a.44.44,0,0,0-.442.439V66.15a.434.434,0,0,0,.431.442l2.6.009a.441.441,0,0,1,.439.442v3.411a.45.45,0,0,1-.453.439l-2.6-.009a.42.42,0,0,0-.417.439V81.342a.493.493,0,0,1-.5.439L287,81.763a.44.44,0,0,1-.439-.442V59.255C286.559,59.012,286.869,58.815,287.112,58.816Z" transform="translate(-237.741 -58.793)" fill="#fff"></path><path id="Trac&#xE9;_2" data-name="Trac&#xE9; 2" d="M177.932,437.847a.251.251,0,0,0-.224-.016l-.332.139a21.4,21.4,0,0,1-8.162,1.539,21.015,21.015,0,0,1-8.7-1.775l-.34-.156a.251.251,0,0,0-.228.01.217.217,0,0,0-.111.187v1.591a.22.22,0,0,0,.137.2l.136.058a23.1,23.1,0,0,0,9.108,1.777,23.494,23.494,0,0,0,8.539-1.54l.144-.057a.219.219,0,0,0,.143-.2v-1.568A.217.217,0,0,0,177.932,437.847Z" transform="translate(-137.643 -357.954)" fill="#dcb961"></path><path id="Trac&#xE9;_3" data-name="Trac&#xE9; 3" d="M286.932,191.379a.362.362,0,0,0-.374.349v43.054c0,.449.462.691.751.391,6.882-7.168,11.044-15.2,12.053-27.034.239-2.8.393-12.065.476-16.406a.36.36,0,0,0-.374-.354Z" transform="translate(-237.741 -163.502)" fill="#fff"></path><path id="Trac&#xE9;_4" data-name="Trac&#xE9; 4" d="M67.31,191.379a.362.362,0,0,1,.374.349v43.054c0,.449-.462.691-.751.391-6.882-7.168-11.044-15.2-12.053-27.034-.239-2.8-.393-12.065-.477-16.406a.36.36,0,0,1,.374-.354Z" transform="translate(-54.365 -163.502)" fill="#fff"></path><path id="Trac&#xE9;_5" data-name="Trac&#xE9; 5" d="M143.371,191.418h3.166a.18.18,0,0,1,.177.183v6.629a.18.18,0,0,1-.177.183h-1.952a.18.18,0,0,1-.177-.183v-4.8a.18.18,0,0,0-.177-.183h-.859a.18.18,0,0,1-.177-.183V191.6A.18.18,0,0,1,143.371,191.418Z" transform="translate(-124.5 -163.533)" fill="#dcb961"></path><path id="Trac&#xE9;_6" data-name="Trac&#xE9; 6" d="M171.393,191.651a1.977,1.977,0,0,1,.895.664,1.663,1.663,0,0,1,.313,1,1.645,1.645,0,0,1-.189.757,1.688,1.688,0,0,1-.507.6,1.948,1.948,0,0,1,.775.718,1.865,1.865,0,0,1,.288,1,1.67,1.67,0,0,1-.363,1.062,2.286,2.286,0,0,1-1.024.708,4.376,4.376,0,0,1-1.536.247,4.329,4.329,0,0,1-1.531-.247,2.343,2.343,0,0,1-1.02-.694,1.6,1.6,0,0,1-.363-1.038,1.8,1.8,0,0,1,.323-1.023,2.1,2.1,0,0,1,.85-.732,1.984,1.984,0,0,1-.587-.65,1.568,1.568,0,0,1-.219-.776,1.549,1.549,0,0,1,.313-.965,2.013,2.013,0,0,1,.89-.64,4.039,4.039,0,0,1,2.69.005Zm-2.1,4.55a.549.549,0,0,0,.194.456.88.88,0,0,0,.562.155.922.922,0,0,0,.577-.155.543.543,0,0,0,.2-.456.589.589,0,0,0-.194-.475.861.861,0,0,0-.572-.165Q169.289,195.56,169.29,196.2Zm.119-2.765q0,.524.636.524t.646-.524q0-.563-.646-.563T169.409,193.436Z" transform="translate(-143.408 -163.533)" fill="#dcb961"></path><path id="Trac&#xE9;_7" data-name="Trac&#xE9; 7" d="M203.214,196.763a1.4,1.4,0,0,0,1-.325,1.266,1.266,0,0,0,.338-.956,1.855,1.855,0,0,1-1.422.563,2.273,2.273,0,0,1-1.149-.282,1.952,1.952,0,0,1-.766-.8,2.46,2.46,0,0,1-.273-1.174,2.364,2.364,0,0,1,.328-1.256,2.158,2.158,0,0,1,.93-.83,3.15,3.15,0,0,1,1.387-.291,3.078,3.078,0,0,1,1.631.417,2.731,2.731,0,0,1,1.054,1.183,4.6,4.6,0,0,1-.04,3.7,2.961,2.961,0,0,1-1.154,1.256,3.351,3.351,0,0,1-1.74.441,4.865,4.865,0,0,1-1.243-.165,4.273,4.273,0,0,1-.919-.349.178.178,0,0,1-.067-.245l.651-1.164a.178.178,0,0,1,.257-.056A2.124,2.124,0,0,0,203.214,196.763Zm-.229-2.959a.6.6,0,0,0,.666.679.713.713,0,0,0,.527-.179.816.816,0,0,0,0-1.014.708.708,0,0,0-.522-.175A.6.6,0,0,0,202.986,193.8Z" transform="translate(-170.118 -163.533)" fill="#dcb961"></path><path id="Trac&#xE9;_8" data-name="Trac&#xE9; 8" d="M236.8,194.217a2.181,2.181,0,0,1,.975.728,1.81,1.81,0,0,1,.343,1.092,2.3,2.3,0,0,1-.362,1.284,2.334,2.334,0,0,1-1.034.856,3.8,3.8,0,0,1-1.566.3,5.4,5.4,0,0,1-2.757-.813.185.185,0,0,1-.059-.241l.649-1.229a.176.176,0,0,1,.264-.054,2.75,2.75,0,0,0,1.634.665.87.87,0,0,0,.557-.152.541.541,0,0,0,.189-.448q0-.581-.756-.581h-1.792a.179.179,0,0,1-.177-.181v-3.781a.179.179,0,0,1,.177-.18h4.528a.179.179,0,0,1,.177.18v1.39a.179.179,0,0,1-.177.181h-2.42a.179.179,0,0,0-.177.18v.547h.318A3.89,3.89,0,0,1,236.8,194.217Z" transform="translate(-194.896 -163.584)" fill="#dcb961"></path><path id="Trac&#xE9;_9" data-name="Trac&#xE9; 9" d="M159.826,248.727v35.13a.93.93,0,0,0,.668.862,27.766,27.766,0,0,0,16.834.265.933.933,0,0,0,.7-.871V248.727a.347.347,0,0,0-.367-.323H160.193A.347.347,0,0,0,159.826,248.727Z" transform="translate(-137.637 -208.546)" fill="#fff"></path><path id="Trac&#xE9;_10" data-name="Trac&#xE9; 10" d="M144.825,73.356l-4.837,0c-.209-.054-.411.2-.412.443l0,1.448c0,.3-.006.557-.015.791v1.15a.864.864,0,0,1-.689.843.849.849,0,0,1-.344,0,.864.864,0,0,1-.688-.843V63.235a.861.861,0,1,1,1.721,0v2.7c0,.328.189.572.349.573l4.939,0a.359.359,0,0,0,.38-.38v-.383a8.945,8.945,0,0,0-.42-3.57,4.657,4.657,0,0,0-2.1-2.442,7.75,7.75,0,0,0-4.076-.99,8.266,8.266,0,0,0-3.326.621,5.315,5.315,0,0,0-2.2,1.725,5.048,5.048,0,0,0-.958,2.286,29.176,29.176,0,0,0-.171,3.565l-.021,6.424a16.884,16.884,0,0,0,.5,4.844,4.4,4.4,0,0,0,2.1,2.527,8.1,8.1,0,0,0,4.05.923,7.024,7.024,0,0,0,3.983-1.062,4.922,4.922,0,0,0,2.095-2.5,10.557,10.557,0,0,0,.517-3.958v-.322C145.2,73.574,145.035,73.3,144.825,73.356Z" transform="translate(-115.618 -58.734)" fill="#fff"></path><path id="Trac&#xE9;_11" data-name="Trac&#xE9; 11" d="M66.563,70.885q-1.024-1.455-4.977-3.732c-.919-.527-1.476-.793-1.672-1.165a4.023,4.023,0,0,1-.3-1.768c0-.065,0-.13,0-.195v-.607a1.113,1.113,0,0,1,1.108-1.111h.209a1.1,1.1,0,0,1,.758.306.651.651,0,0,1,.152.155.68.68,0,0,1,.065.134,1.094,1.094,0,0,1,.134.516v.373c.005.133.009.274.008.429l-.006,1.8a.432.432,0,0,0,.4.453H67.15a.417.417,0,0,0,.4-.435l0-.594a11.957,11.957,0,0,0-.515-4.154,4.074,4.074,0,0,0-2.15-1.819,12.176,12.176,0,0,0-4.4-.761,8.766,8.766,0,0,0-3.582.675A4.045,4.045,0,0,0,54.9,61.2a7.728,7.728,0,0,0-.681,3.689,7.5,7.5,0,0,0,.462,2.878,4.777,4.777,0,0,0,1.185,1.768,20.866,20.866,0,0,0,2.761,2.058,17.492,17.492,0,0,1,2.769,2,3.708,3.708,0,0,1,.541,2.454c0,.023,0,.13,0,.152s0,.016,0,.024v.787a1.033,1.033,0,0,1-1.029,1.032h-.034a1.033,1.033,0,0,1-1.029-1.032v-.142a7.946,7.946,0,0,1,0-.822V73.863a.424.424,0,0,0-.4-.445L54.742,73.4a.5.5,0,0,0-.491.442v.866a11.1,11.1,0,0,0,.466,3.815,4.331,4.331,0,0,0,2.2,2.219,8.775,8.775,0,0,0,4.062.882,9.009,9.009,0,0,0,3.806-.741,4.418,4.418,0,0,0,2.211-1.858,7.942,7.942,0,0,0,.582-3.458A8.266,8.266,0,0,0,66.563,70.885Z" transform="translate(-54.221 -58.705)" fill="#fff"></path><path id="Trac&#xE9;_12" data-name="Trac&#xE9; 12" d="M222.537,73.123V59.258c0-.247-.083-.469-.3-.47H217.6a.467.467,0,0,0-.42.47V75.687c0,.11,0,.214,0,.314v.887A1.217,1.217,0,0,1,215.96,78.1h0a1.217,1.217,0,0,1-1.213-1.213v-.78c0-.153,0-.31,0-.477V60.512a1.182,1.182,0,0,1,.01-.148V59.258a.443.443,0,0,0-.39-.47h-4.583a.437.437,0,0,0-.381.47V73.123c-.008,2.495-.089,3.441,0,4.22a4.6,4.6,0,0,0,.953,2.154,5.219,5.219,0,0,0,2.276,1.666,8.863,8.863,0,0,0,3.517.605,8.054,8.054,0,0,0,3.129-.605,5.164,5.164,0,0,0,2.143-1.666,5.4,5.4,0,0,0,1.117-2.154C222.649,76.665,222.532,74.8,222.537,73.123Z" transform="translate(-176.765 -58.77)" fill="#fff"></path></g></g></svg>